<mxfile host="app.diagrams.net" modified="2022-10-06T16:38:52.246Z" agent="5.0 (Macintosh; Intel Mac OS X 10_15_7) AppleWebKit/537.36 (KHTML, like Gecko) Chrome/105.0.0.0 Safari/537.36" etag="_fGyLrmIEkYJaxN1OVA0" version="20.4.0" type="github">
  <diagram id="piDafpqhtRUU5qUU-vj8" name="Page-1">
    <mxGraphModel dx="2173" dy="1364" grid="1" gridSize="10" guides="1" tooltips="1" connect="1" arrows="1" fold="1" page="1" pageScale="1" pageWidth="827" pageHeight="1169" math="0" shadow="0">
      <root>
        <mxCell id="0" />
        <mxCell id="1" parent="0" />
        <mxCell id="-D2iBs-cGXRnkzUXunpr-8" value="" style="strokeWidth=1;shadow=0;dashed=0;align=center;html=1;shape=mxgraph.mockup.containers.browserWindow;rSize=0;strokeColor=#666666;strokeColor2=#008cff;strokeColor3=#c4c4c4;mainText=,;recursiveResize=0;" parent="1" vertex="1">
          <mxGeometry x="40" y="30" width="920" height="600" as="geometry" />
        </mxCell>
        <mxCell id="-D2iBs-cGXRnkzUXunpr-9" value="Page 1" style="strokeWidth=1;shadow=0;dashed=0;align=center;html=1;shape=mxgraph.mockup.containers.anchor;fontSize=17;fontColor=#666666;align=left;" parent="-D2iBs-cGXRnkzUXunpr-8" vertex="1">
          <mxGeometry x="60" y="12" width="110" height="26" as="geometry" />
        </mxCell>
        <mxCell id="-D2iBs-cGXRnkzUXunpr-10" value="https://www.draw.io" style="strokeWidth=1;shadow=0;dashed=0;align=center;html=1;shape=mxgraph.mockup.containers.anchor;rSize=0;fontSize=17;fontColor=#666666;align=left;" parent="-D2iBs-cGXRnkzUXunpr-8" vertex="1">
          <mxGeometry x="130" y="60" width="250" height="26" as="geometry" />
        </mxCell>
        <mxCell id="-D2iBs-cGXRnkzUXunpr-11" value="" style="verticalLabelPosition=bottom;shadow=0;dashed=0;align=center;html=1;verticalAlign=top;strokeWidth=1;shape=mxgraph.mockup.containers.userMale;strokeColor=#666666;strokeColor2=#008cff;" parent="-D2iBs-cGXRnkzUXunpr-8" vertex="1">
          <mxGeometry x="870" y="122.5" width="40" height="40" as="geometry" />
        </mxCell>
        <mxCell id="-D2iBs-cGXRnkzUXunpr-12" value="Search" style="strokeWidth=1;shadow=0;dashed=0;align=center;html=1;shape=mxgraph.mockup.forms.searchBox;strokeColor=#999999;mainText=;strokeColor2=#008cff;fontColor=#666666;fontSize=17;align=left;spacingLeft=3;" parent="-D2iBs-cGXRnkzUXunpr-8" vertex="1">
          <mxGeometry x="20" y="127.5" width="150" height="30" as="geometry" />
        </mxCell>
        <mxCell id="-D2iBs-cGXRnkzUXunpr-35" value="Settings" style="strokeWidth=1;shadow=0;dashed=0;align=center;html=1;shape=mxgraph.mockup.forms.comboBox;strokeColor=#999999;fillColor=#ddeeff;align=left;fillColor2=#aaddff;mainText=;fontColor=#666666;fontSize=17;spacingLeft=3;" parent="-D2iBs-cGXRnkzUXunpr-8" vertex="1">
          <mxGeometry x="720" y="127.5" width="130" height="30" as="geometry" />
        </mxCell>
        <mxCell id="-D2iBs-cGXRnkzUXunpr-44" value="Only show unread" style="strokeWidth=1;shadow=0;dashed=0;align=center;html=1;shape=mxgraph.mockup.forms.rrect;rSize=0;fillColor=#eeeeee;strokeColor=#999999;gradientColor=#cccccc;align=left;spacingLeft=4;fontSize=17;fontColor=#666666;labelPosition=right;" parent="-D2iBs-cGXRnkzUXunpr-8" vertex="1">
          <mxGeometry x="20" y="180" width="15" height="15" as="geometry" />
        </mxCell>
        <mxCell id="-D2iBs-cGXRnkzUXunpr-48" value="Only show unread signatures&amp;nbsp;" style="strokeWidth=1;shadow=0;dashed=0;align=center;html=1;shape=mxgraph.mockup.forms.rrect;rSize=0;fillColor=#eeeeee;strokeColor=#999999;gradientColor=#cccccc;align=left;spacingLeft=4;fontSize=17;fontColor=#666666;labelPosition=right;" parent="-D2iBs-cGXRnkzUXunpr-8" vertex="1">
          <mxGeometry x="20" y="210" width="15" height="15" as="geometry" />
        </mxCell>
        <mxCell id="-D2iBs-cGXRnkzUXunpr-56" value="" style="verticalLabelPosition=bottom;shadow=0;dashed=0;align=center;html=1;verticalAlign=top;strokeWidth=1;shape=mxgraph.mockup.graphics.simpleIcon;strokeColor=#999999;fontColor=#808080;fillColor=#FFFFFF;" parent="-D2iBs-cGXRnkzUXunpr-8" vertex="1">
          <mxGeometry x="20" y="250" width="240" height="50" as="geometry" />
        </mxCell>
        <mxCell id="-D2iBs-cGXRnkzUXunpr-57" value="" style="verticalLabelPosition=bottom;shadow=0;dashed=0;align=center;html=1;verticalAlign=top;strokeWidth=1;shape=mxgraph.mockup.graphics.simpleIcon;strokeColor=#999999;fontColor=#808080;fillColor=#FFFFFF;" parent="-D2iBs-cGXRnkzUXunpr-8" vertex="1">
          <mxGeometry x="20" y="330" width="240" height="50" as="geometry" />
        </mxCell>
        <mxCell id="-D2iBs-cGXRnkzUXunpr-58" value="" style="verticalLabelPosition=bottom;shadow=0;dashed=0;align=center;html=1;verticalAlign=top;strokeWidth=1;shape=mxgraph.mockup.graphics.simpleIcon;strokeColor=#999999;fontColor=#808080;fillColor=#FFFFFF;" parent="-D2iBs-cGXRnkzUXunpr-8" vertex="1">
          <mxGeometry x="20" y="410" width="240" height="50" as="geometry" />
        </mxCell>
        <mxCell id="-D2iBs-cGXRnkzUXunpr-59" value="" style="verticalLabelPosition=bottom;shadow=0;dashed=0;align=center;html=1;verticalAlign=top;strokeWidth=1;shape=mxgraph.mockup.graphics.simpleIcon;strokeColor=#999999;fontColor=#808080;fillColor=#FFFFFF;" parent="-D2iBs-cGXRnkzUXunpr-8" vertex="1">
          <mxGeometry x="20" y="490" width="240" height="50" as="geometry" />
        </mxCell>
        <mxCell id="-D2iBs-cGXRnkzUXunpr-65" value="" style="strokeWidth=1;shadow=0;dashed=0;align=center;html=1;shape=mxgraph.mockup.forms.rrect;rSize=0;strokeColor=#999999;fillColor=#ffffff;recursiveResize=0;fontColor=#808080;" parent="-D2iBs-cGXRnkzUXunpr-8" vertex="1">
          <mxGeometry x="720" y="170" width="150" height="120" as="geometry" />
        </mxCell>
        <mxCell id="-D2iBs-cGXRnkzUXunpr-66" value="Notifications" style="shape=ellipse;rSize=0;fillColor=#eeeeee;strokeColor=#999999;gradientColor=#cccccc;html=1;align=left;spacingLeft=4;fontSize=17;fontColor=#666666;labelPosition=right;" parent="-D2iBs-cGXRnkzUXunpr-65" vertex="1">
          <mxGeometry x="8" y="7.5" width="15" height="15" as="geometry" />
        </mxCell>
        <mxCell id="-D2iBs-cGXRnkzUXunpr-67" value="..." style="shape=ellipse;rSize=0;fillColor=#eeeeee;strokeColor=#999999;gradientColor=#cccccc;html=1;align=left;spacingLeft=4;fontSize=17;fontColor=#666666;labelPosition=right;" parent="-D2iBs-cGXRnkzUXunpr-65" vertex="1">
          <mxGeometry x="8" y="37.5" width="15" height="15" as="geometry" />
        </mxCell>
        <mxCell id="-D2iBs-cGXRnkzUXunpr-68" value="Create form" style="shape=ellipse;rSize=0;fillColor=#aaaaaa;strokeColor=#444444;gradientColor=#666666;html=1;align=left;spacingLeft=4;fontSize=17;fontColor=#008cff;labelPosition=right;" parent="-D2iBs-cGXRnkzUXunpr-65" vertex="1">
          <mxGeometry x="8" y="67.5" width="15" height="15" as="geometry" />
        </mxCell>
        <mxCell id="-D2iBs-cGXRnkzUXunpr-69" value="" style="shape=ellipse;fillColor=#444444;strokeColor=none;html=1;fontColor=#808080;" parent="-D2iBs-cGXRnkzUXunpr-68" vertex="1">
          <mxGeometry x="3" y="3" width="9" height="9" as="geometry" />
        </mxCell>
        <mxCell id="-D2iBs-cGXRnkzUXunpr-70" value="..." style="shape=ellipse;rSize=0;fillColor=#eeeeee;strokeColor=#999999;gradientColor=#cccccc;html=1;align=left;spacingLeft=4;fontSize=17;fontColor=#666666;labelPosition=right;" parent="-D2iBs-cGXRnkzUXunpr-65" vertex="1">
          <mxGeometry x="8" y="97.5" width="15" height="15" as="geometry" />
        </mxCell>
        <mxCell id="-D2iBs-cGXRnkzUXunpr-50" value="" style="strokeWidth=1;shadow=0;dashed=0;align=center;html=1;shape=mxgraph.mockup.rrect;rSize=10;fillColor=#ffffff;strokeColor=#666666;" parent="-D2iBs-cGXRnkzUXunpr-8" vertex="1">
          <mxGeometry x="250" y="125" width="390" height="35" as="geometry" />
        </mxCell>
        <mxCell id="-D2iBs-cGXRnkzUXunpr-51" value="Locations" style="strokeColor=inherit;fillColor=inherit;gradientColor=inherit;strokeWidth=1;shadow=0;dashed=0;align=center;html=1;shape=mxgraph.mockup.rrect;rSize=0;fontSize=17;fontColor=#666666;fontStyle=1;resizeHeight=1;" parent="-D2iBs-cGXRnkzUXunpr-50" vertex="1">
          <mxGeometry width="130" height="35" relative="1" as="geometry">
            <mxPoint x="130" as="offset" />
          </mxGeometry>
        </mxCell>
        <mxCell id="-D2iBs-cGXRnkzUXunpr-52" value="Workers" style="strokeColor=inherit;fillColor=inherit;gradientColor=inherit;strokeWidth=1;shadow=0;dashed=0;align=center;html=1;shape=mxgraph.mockup.rrect;rSize=0;fontSize=17;fontColor=#666666;fontStyle=1;resizeHeight=1;" parent="-D2iBs-cGXRnkzUXunpr-50" vertex="1">
          <mxGeometry width="135" height="35" relative="1" as="geometry">
            <mxPoint x="255" as="offset" />
          </mxGeometry>
        </mxCell>
        <mxCell id="-D2iBs-cGXRnkzUXunpr-54" value="&lt;font color=&quot;#808080&quot;&gt;Reports&lt;/font&gt;" style="strokeWidth=1;shadow=0;dashed=0;align=center;html=1;shape=mxgraph.mockup.leftButton;rSize=10;fontSize=17;fontColor=#ffffff;fontStyle=1;fillColor=#FFFFFF;strokeColor=#008cff;resizeHeight=1;" parent="-D2iBs-cGXRnkzUXunpr-50" vertex="1">
          <mxGeometry width="130" height="35" relative="1" as="geometry" />
        </mxCell>
        <mxCell id="-D2iBs-cGXRnkzUXunpr-85" value="" style="endArrow=classic;html=1;rounded=0;fontColor=#808080;edgeStyle=orthogonalEdgeStyle;" parent="-D2iBs-cGXRnkzUXunpr-8" edge="1">
          <mxGeometry width="50" height="50" relative="1" as="geometry">
            <mxPoint x="880" y="245" as="sourcePoint" />
            <mxPoint x="970" y="340" as="targetPoint" />
            <Array as="points">
              <mxPoint x="940" y="245" />
              <mxPoint x="940" y="340" />
            </Array>
          </mxGeometry>
        </mxCell>
        <mxCell id="-D2iBs-cGXRnkzUXunpr-71" value="" style="strokeWidth=1;shadow=0;dashed=0;align=center;html=1;shape=mxgraph.mockup.containers.browserWindow;rSize=0;strokeColor=#666666;strokeColor2=#008cff;strokeColor3=#c4c4c4;mainText=,;recursiveResize=0;fontColor=#808080;fillColor=#FFFFFF;" parent="1" vertex="1">
          <mxGeometry x="1020" y="90" width="740" height="470" as="geometry" />
        </mxCell>
        <mxCell id="-D2iBs-cGXRnkzUXunpr-72" value="Page 1" style="strokeWidth=1;shadow=0;dashed=0;align=center;html=1;shape=mxgraph.mockup.containers.anchor;fontSize=17;fontColor=#666666;align=left;fillColor=#FFFFFF;" parent="-D2iBs-cGXRnkzUXunpr-71" vertex="1">
          <mxGeometry x="60" y="12" width="110" height="26" as="geometry" />
        </mxCell>
        <mxCell id="-D2iBs-cGXRnkzUXunpr-73" value="https://www.draw.io" style="strokeWidth=1;shadow=0;dashed=0;align=center;html=1;shape=mxgraph.mockup.containers.anchor;rSize=0;fontSize=17;fontColor=#666666;align=left;fillColor=#FFFFFF;" parent="-D2iBs-cGXRnkzUXunpr-71" vertex="1">
          <mxGeometry x="130" y="60" width="250" height="26" as="geometry" />
        </mxCell>
        <mxCell id="-D2iBs-cGXRnkzUXunpr-77" value="Create with GoogleForms" style="strokeWidth=1;shadow=0;dashed=0;align=center;html=1;shape=mxgraph.mockup.buttons.button;strokeColor=#666666;fontColor=#ffffff;mainText=;buttonStyle=round;fontSize=17;fontStyle=1;fillColor=#008cff;whiteSpace=wrap;" parent="-D2iBs-cGXRnkzUXunpr-71" vertex="1">
          <mxGeometry x="245" y="160" width="250" height="30" as="geometry" />
        </mxCell>
        <mxCell id="-D2iBs-cGXRnkzUXunpr-79" value="Create with Notion" style="strokeWidth=1;shadow=0;dashed=0;align=center;html=1;shape=mxgraph.mockup.buttons.button;strokeColor=#666666;fontColor=#ffffff;mainText=;buttonStyle=round;fontSize=17;fontStyle=1;fillColor=#008cff;whiteSpace=wrap;" parent="-D2iBs-cGXRnkzUXunpr-71" vertex="1">
          <mxGeometry x="242.5" y="210" width="255" height="30" as="geometry" />
        </mxCell>
        <mxCell id="-D2iBs-cGXRnkzUXunpr-80" value="Create with JotForms" style="strokeWidth=1;shadow=0;dashed=0;align=center;html=1;shape=mxgraph.mockup.buttons.button;strokeColor=#666666;fontColor=#ffffff;mainText=;buttonStyle=round;fontSize=17;fontStyle=1;fillColor=#008cff;whiteSpace=wrap;" parent="-D2iBs-cGXRnkzUXunpr-71" vertex="1">
          <mxGeometry x="242.5" y="260" width="255" height="30" as="geometry" />
        </mxCell>
        <mxCell id="-D2iBs-cGXRnkzUXunpr-86" value="" style="strokeWidth=1;shadow=0;dashed=0;align=center;html=1;shape=mxgraph.mockup.containers.browserWindow;rSize=0;strokeColor=#666666;strokeColor2=#008cff;strokeColor3=#c4c4c4;mainText=,;recursiveResize=0;fontColor=#808080;fillColor=#FFFFFF;" parent="1" vertex="1">
          <mxGeometry x="1020" y="600" width="740" height="470" as="geometry" />
        </mxCell>
        <mxCell id="-D2iBs-cGXRnkzUXunpr-87" value="Page 1" style="strokeWidth=1;shadow=0;dashed=0;align=center;html=1;shape=mxgraph.mockup.containers.anchor;fontSize=17;fontColor=#666666;align=left;fillColor=#FFFFFF;" parent="-D2iBs-cGXRnkzUXunpr-86" vertex="1">
          <mxGeometry x="60" y="12" width="110" height="26" as="geometry" />
        </mxCell>
        <mxCell id="-D2iBs-cGXRnkzUXunpr-88" value="https://www.draw.io" style="strokeWidth=1;shadow=0;dashed=0;align=center;html=1;shape=mxgraph.mockup.containers.anchor;rSize=0;fontSize=17;fontColor=#666666;align=left;fillColor=#FFFFFF;" parent="-D2iBs-cGXRnkzUXunpr-86" vertex="1">
          <mxGeometry x="130" y="60" width="250" height="26" as="geometry" />
        </mxCell>
        <mxCell id="-D2iBs-cGXRnkzUXunpr-90" value="" style="verticalLabelPosition=bottom;shadow=0;dashed=0;align=center;html=1;verticalAlign=top;strokeWidth=1;shape=mxgraph.mockup.misc.loading_circle_2;pointerEvents=1;fontColor=#808080;fillColor=#FFFFFF;" parent="-D2iBs-cGXRnkzUXunpr-86" vertex="1">
          <mxGeometry x="325" y="180" width="90" height="90" as="geometry" />
        </mxCell>
        <mxCell id="-D2iBs-cGXRnkzUXunpr-91" value="&lt;font style=&quot;font-size: 20px;&quot;&gt;Creating&lt;/font&gt;" style="text;html=1;strokeColor=none;fillColor=none;align=center;verticalAlign=middle;whiteSpace=wrap;rounded=0;fontColor=#808080;" parent="-D2iBs-cGXRnkzUXunpr-86" vertex="1">
          <mxGeometry x="340" y="290" width="60" height="30" as="geometry" />
        </mxCell>
        <mxCell id="-D2iBs-cGXRnkzUXunpr-92" value="&lt;font style=&quot;font-size: 14px;&quot;&gt;Delete&lt;/font&gt;" style="strokeWidth=1;shadow=0;dashed=0;align=center;html=1;shape=mxgraph.mockup.buttons.button;strokeColor=#666666;fontColor=#ffffff;mainText=;buttonStyle=round;fontSize=17;fontStyle=1;fillColor=#008cff;whiteSpace=wrap;" parent="-D2iBs-cGXRnkzUXunpr-86" vertex="1">
          <mxGeometry x="10" y="440" width="80" height="20" as="geometry" />
        </mxCell>
        <mxCell id="-D2iBs-cGXRnkzUXunpr-93" value="&lt;span style=&quot;font-size: 14px;&quot;&gt;Save&lt;/span&gt;" style="strokeWidth=1;shadow=0;dashed=0;align=center;html=1;shape=mxgraph.mockup.buttons.button;strokeColor=#666666;fontColor=#ffffff;mainText=;buttonStyle=round;fontSize=17;fontStyle=1;fillColor=#008cff;whiteSpace=wrap;" parent="-D2iBs-cGXRnkzUXunpr-86" vertex="1">
          <mxGeometry x="560" y="440" width="80" height="20" as="geometry" />
        </mxCell>
        <mxCell id="-D2iBs-cGXRnkzUXunpr-94" value="&lt;font style=&quot;font-size: 14px;&quot;&gt;Publish&lt;/font&gt;" style="strokeWidth=1;shadow=0;dashed=0;align=center;html=1;shape=mxgraph.mockup.buttons.button;strokeColor=#666666;fontColor=#ffffff;mainText=;buttonStyle=round;fontSize=17;fontStyle=1;fillColor=#008cff;whiteSpace=wrap;" parent="-D2iBs-cGXRnkzUXunpr-86" vertex="1">
          <mxGeometry x="650" y="440" width="80" height="20" as="geometry" />
        </mxCell>
        <mxCell id="-D2iBs-cGXRnkzUXunpr-95" value="" style="endArrow=classic;html=1;rounded=0;fontSize=14;fontColor=#808080;entryX=0.513;entryY=0;entryDx=0;entryDy=0;entryPerimeter=0;" parent="1" target="-D2iBs-cGXRnkzUXunpr-86" edge="1">
          <mxGeometry width="50" height="50" relative="1" as="geometry">
            <mxPoint x="1400" y="560" as="sourcePoint" />
            <mxPoint x="1320" y="650" as="targetPoint" />
          </mxGeometry>
        </mxCell>
      </root>
    </mxGraphModel>
  </diagram>
</mxfile>
